<svg width="51" height="49" viewBox="0 0 51 49" fill="none" xmlns="http://www.w3.org/2000/svg">
<path d="M44.4003 49L29.8003 34.4L35.4003 28.8L50.0003 43.4L44.4003 49ZM7.60033 49L2.00033 43.4L20.4003 25L15.867 20.4667L14.0003 22.3333L10.6003 18.9333V24.4L8.73366 26.2667L0.666992 18.2L2.53366 16.3333H8.00033L4.66699 13L14.1337 3.53332C15.0225 2.64443 15.9781 1.99999 17.0003 1.59999C18.0226 1.19999 19.067 0.999989 20.1337 0.999989C21.2003 0.999989 22.2448 1.19999 23.267 1.59999C24.2892 1.99999 25.2448 2.64443 26.1337 3.53332L20.0003 9.66666L23.3337 13L21.467 14.8667L26.0003 19.4L32.0003 13.4C31.8226 12.9111 31.6786 12.4 31.5683 11.8667C31.4581 11.3333 31.4021 10.8 31.4003 10.2667C31.4003 7.64443 32.3008 5.43288 34.1017 3.63199C35.9026 1.8311 38.1132 0.931544 40.7337 0.933322C41.4003 0.933322 42.0341 0.999989 42.635 1.13332C43.2359 1.26666 43.8465 1.46666 44.467 1.73332L37.867 8.33332L42.667 13.1333L49.267 6.53332C49.5781 7.15554 49.7897 7.76621 49.9017 8.36532C50.0137 8.96443 50.0688 9.59821 50.067 10.2667C50.067 12.8889 49.1674 15.1004 47.3683 16.9013C45.5692 18.7022 43.3577 19.6018 40.7337 19.6C40.2003 19.6 39.667 19.5555 39.1337 19.4667C38.6003 19.3778 38.0892 19.2222 37.6003 19L7.60033 49Z" fill="black"/>
</svg>
