<svg width="64" height="64" viewBox="0 0 64 64" fill="none" xmlns="http://www.w3.org/2000/svg">
<path d="M45.7148 6.85715H18.2863C15.7615 6.85715 13.7148 8.90385 13.7148 11.4286V34.2857C13.7148 36.8104 15.7615 38.8571 18.2863 38.8571H45.7148C48.2396 38.8571 50.2863 36.8104 50.2863 34.2857V11.4286C50.2863 8.90385 48.2396 6.85715 45.7148 6.85715Z" stroke="black" stroke-width="4" stroke-linecap="round" stroke-linejoin="round"/>
<path d="M13.7147 20.5714H6.85756C5.64514 20.5714 4.48238 21.0531 3.62507 21.9104C2.76776 22.7677 2.28613 23.9305 2.28613 25.1429V45.7143C2.28613 46.9267 2.76776 48.0895 3.62507 48.9468C4.48238 49.8041 5.64514 50.2857 6.85756 50.2857H57.1433C58.3557 50.2857 59.5185 49.8041 60.3758 48.9468C61.2331 48.0895 61.7147 46.9267 61.7147 45.7143V25.1429C61.7147 23.9305 61.2331 22.7677 60.3758 21.9104C59.5185 21.0531 58.3557 20.5714 57.1433 20.5714H50.2861M18.2861 50.2857L16.0004 61.7143M45.7147 50.2857L48.0004 61.7143" stroke="black" stroke-width="4" stroke-linecap="round" stroke-linejoin="round"/>
</svg>
