<svg width="60" height="52" viewBox="0 0 60 52" fill="none" xmlns="http://www.w3.org/2000/svg">
<path d="M60 10C60 9.2 59.6 8.6 59 8.2L45 0.2C44.6 -1.93715e-07 44.4 0 44 0C43.6 0 43.4 -1.93715e-07 43 0.2L30 7.6L17 0.2C16.6 -1.93715e-07 16.4 0 16 0C15.6 0 15.4 -1.93715e-07 15 0.2L1 8.2C0.4 8.6 0 9.2 0 10V50C0 51.2 0.8 52 2 52C2.4 52 2.6 51.8 3 51.8L16 44.4L29 51.8C29.4 52 29.6 52 30 52C30.4 52 30.6 52 31 51.8L44 44.4L57 51.8C57.2 52 57.6 52 58 52C59.2 52 60 51.2 60 50V10ZM4 11.2L14 5.4V40.8L4 46.6V11.2ZM28 46.6L18 40.8V5.4L28 11.2V46.6ZM42 40.8L32 46.6V11.2L42 5.4V40.8ZM46 40.8V5.4L56 11.2V46.6L46 40.8Z" fill="black"/>
</svg>
