<svg xmlns="http://www.w3.org/2000/svg" version="1.0" preserveAspectRatio="xMidYMid meet" viewBox="181.28 170.18 881.55 254.65">

<g transform="translate(0.000000,608.000000) scale(0.100000,-0.100000)" fill="#000000" stroke="none">
<path d="M2330 4349 c-85 -43 -192 -151 -271 -271 -136 -211 -260 -510 -245 -592 12 -61 56 -81 135 -62 31 7 33 6 26 -10 -65 -155 -107 -385 -87 -480 6 -31 19 -65 28 -75 40 -45 132 -5 220 95 118 134 200 289 290 551 26 77 49 142 50 144 2 2 24 -4 50 -14 52 -20 50 -7 19 -149 -10 -47 -15 -102 -13 -134 6 -70 29 -92 99 -92 93 0 218 55 515 226 318 183 448 237 654 273 138 23 80 29 -70 6 -163 -24 -314 -88 -625 -261 -179 -100 -333 -169 -421 -190 -75 -17 -99 -9 -109 35 -5 26 18 202 30 220 9 16 65 275 65 305 0 60 -41 73 -97 30 -19 -14 -36 -24 -38 -23 -1 2 3 36 11 74 16 84 18 265 3 318 -16 60 -57 98 -109 104 -37 4 -57 -1 -110 -28z m159 -23 c47 -50 62 -168 41 -319 -22 -147 -27 -162 -83 -209 -93 -78 -96 -80 -151 -84 -103 -6 -170 -52 -247 -170 -42 -65 -87 -94 -146 -96 -45 -1 -53 8 -53 64 0 103 110 357 243 562 136 208 324 328 396 252z m151 -448 c0 -25 -55 -236 -63 -245 -5 -4 -97 32 -97 39 1 18 41 153 47 159 23 23 90 68 101 69 6 0 12 -10 12 -22z m-170 -148 c-9 -38 -16 -50 -27 -46 -8 4 -26 9 -40 12 -24 6 -24 7 24 49 26 24 50 41 52 39 2 -1 -2 -26 -9 -54z m-188 -65 c-50 -42 -205 -145 -210 -140 -3 3 15 30 39 62 49 63 114 103 166 103 l35 0 -30 -25z m143 5 c14 -5 25 -12 25 -14 0 -24 -104 -296 -146 -383 -62 -126 -118 -208 -211 -305 -65 -67 -110 -95 -137 -85 -51 20 -46 239 10 422 36 119 58 152 137 199 37 22 109 73 160 113 95 74 101 76 162 53z"/>
<path d="M2915 3154 c-119 -25 -189 -58 -255 -120 -60 -56 -92 -127 -98 -219 -5 -84 7 -136 48 -197 42 -63 118 -111 285 -181 259 -108 347 -165 386 -252 37 -80 16 -189 -47 -250 -49 -47 -106 -66 -192 -66 -190 0 -351 107 -448 295 -21 42 -42 76 -47 76 -4 0 -6 -64 -5 -142 l3 -143 82 -41 c45 -22 114 -48 155 -58 97 -24 254 -32 326 -16 135 29 255 117 309 227 24 51 28 69 28 148 0 107 -16 147 -86 216 -56 54 -140 100 -314 169 -209 83 -287 135 -329 217 -21 43 -20 128 3 179 59 131 256 174 429 94 83 -38 173 -125 211 -204 13 -25 27 -46 32 -46 10 0 11 195 2 231 -6 23 -90 55 -191 75 -68 13 -239 17 -287 8z"/>
<path d="M3680 3140 c0 -5 11 -16 23 -25 52 -34 52 -33 55 -584 3 -568 0 -607 -49 -643 -16 -12 -29 -25 -29 -30 0 -4 79 -8 175 -8 96 0 175 4 175 9 0 5 -11 16 -24 24 -45 30 -50 71 -51 362 l0 270 329 3 328 2 -4 -277 c-4 -297 -11 -338 -57 -363 -46 -24 -18 -30 154 -30 96 0 175 4 175 8 0 5 -13 18 -29 30 -49 36 -52 75 -49 644 3 550 3 549 55 583 12 9 23 20 23 25 0 6 -68 10 -175 10 -145 0 -175 -2 -175 -14 0 -8 9 -17 19 -21 11 -3 27 -22 37 -43 16 -32 18 -66 19 -277 l0 -240 -325 0 -325 0 1 240 c0 210 2 245 18 277 10 21 26 40 37 43 10 4 19 13 19 21 0 12 -30 14 -175 14 -107 0 -175 -4 -175 -10z"/>
<path d="M5140 3136 c0 -8 9 -18 21 -21 11 -4 28 -23 37 -43 15 -33 17 -96 20 -531 3 -558 0 -612 -48 -652 -16 -14 -30 -29 -30 -32 0 -4 212 -7 470 -7 368 0 471 3 475 13 2 6 6 67 8 135 4 96 2 122 -8 122 -7 0 -16 -11 -19 -24 -3 -13 -26 -51 -50 -84 -76 -103 -186 -141 -411 -142 -49 0 -107 5 -127 11 -66 18 -68 29 -68 359 l0 292 178 -4 c159 -3 182 -6 230 -27 40 -18 59 -34 78 -67 14 -24 30 -44 35 -44 5 0 9 69 9 155 0 131 -2 155 -15 155 -8 0 -15 -7 -15 -15 0 -27 -60 -83 -108 -100 -34 -13 -93 -19 -219 -22 l-173 -6 0 283 0 282 183 -4 c133 -4 196 -9 234 -22 64 -20 149 -96 181 -160 23 -44 59 -66 48 -28 -3 9 -8 68 -12 130 l-7 112 -448 0 c-383 0 -449 -2 -449 -14z"/>
<path d="M6350 3137 c0 -8 11 -19 24 -25 49 -22 51 -46 51 -612 0 -564 -2 -584 -51 -617 -13 -8 -24 -19 -24 -24 0 -5 193 -9 444 -9 l443 0 6 83 c13 162 7 178 -36 105 -35 -59 -83 -103 -142 -130 -43 -19 -71 -23 -198 -26 -81 -2 -163 -1 -182 2 -68 13 -66 1 -63 614 3 587 3 583 55 617 12 9 23 20 23 25 0 6 -68 10 -175 10 -140 0 -175 -3 -175 -13z"/>
<path d="M7146 3043 c-7 -122 2 -146 34 -84 30 59 93 117 148 136 26 9 84 19 130 22 l82 6 0 -564 c0 -310 -5 -582 -10 -604 -5 -23 -21 -51 -39 -67 -16 -14 -27 -29 -24 -32 11 -10 343 -7 343 3 0 6 -9 16 -20 24 -49 34 -50 45 -50 663 l0 577 84 -6 c138 -10 207 -50 268 -157 13 -22 26 -40 31 -40 9 0 9 120 1 184 l-7 46 -482 0 -482 0 -7 -107z"/>
<path d="M8350 3139 c0 -6 11 -20 25 -31 13 -10 29 -36 35 -56 6 -23 10 -230 10 -557 -1 -553 -3 -579 -49 -612 -12 -8 -21 -18 -21 -24 0 -5 182 -9 469 -9 l468 0 7 92 c8 124 8 178 -3 178 -5 0 -21 -25 -37 -55 -33 -67 -97 -129 -162 -156 -60 -26 -200 -42 -326 -37 -93 4 -100 5 -122 31 l-24 28 0 301 0 300 178 -4 c139 -3 186 -8 217 -22 49 -21 80 -49 95 -87 7 -16 19 -29 26 -29 11 0 14 30 14 155 0 170 -7 187 -48 115 -42 -74 -132 -100 -349 -100 l-133 0 0 281 0 281 183 -4 c157 -4 190 -8 238 -26 75 -30 129 -78 168 -151 18 -34 37 -59 43 -55 9 6 6 94 -8 217 l-6 47 -444 0 c-318 0 -444 -3 -444 -11z"/>
<path d="M9550 3138 c0 -7 9 -19 21 -26 48 -30 49 -45 49 -617 0 -572 -1 -589 -49 -615 -12 -6 -21 -15 -21 -20 0 -11 332 -14 343 -4 3 3 -8 18 -24 32 -18 16 -34 44 -39 67 -5 22 -10 158 -10 303 l0 262 58 0 c118 -1 174 -24 218 -87 11 -17 51 -107 89 -199 134 -333 169 -383 285 -398 58 -8 152 5 158 22 2 7 -6 12 -23 12 -61 0 -85 34 -170 245 -120 296 -164 355 -287 390 l-63 18 59 13 c187 44 297 174 284 339 -11 132 -88 209 -250 251 -88 23 -628 33 -628 12z m508 -48 c65 -28 134 -102 156 -167 19 -55 21 -159 4 -214 -16 -56 -69 -113 -129 -138 -38 -17 -79 -24 -160 -28 l-109 -6 0 293 0 292 93 -4 c67 -3 106 -11 145 -28z"/>
</g>
</svg>